<?xml version="1.0" standalone="no"?>
<!DOCTYPE svg PUBLIC "-//W3C//DTD SVG 20010904//EN"
 "http://www.w3.org/TR/2001/REC-SVG-20010904/DTD/svg10.dtd">
<svg version="1.0" xmlns="http://www.w3.org/2000/svg"
 width="700.000000pt" height="700.000000pt" viewBox="0 0 700.000000 700.000000"
 preserveAspectRatio="xMidYMid meet">
<metadata>
Created by potrace 1.14, written by Peter Selinger 2001-2017
</metadata>
<g transform="translate(0.000000,700.000000) scale(0.100000,-0.100000)"
fill="#000000" stroke="none">
<path d="M1873 5815 c-155 -28 -289 -84 -434 -180 -210 -140 -367 -337 -456
-573 -13 -35 -168 -640 -344 -1345 -317 -1266 -321 -1284 -326 -1408 -11 -246
48 -462 179 -659 177 -265 424 -428 717 -470 114 -17 332 -7 433 19 281 74
519 251 656 489 22 37 88 170 148 295 60 126 124 246 142 267 21 26 51 46 88
59 54 21 71 21 824 21 753 0 770 0 824 -21 37 -13 67 -33 88 -59 18 -21 82
-141 142 -267 60 -125 126 -258 148 -295 139 -240 373 -414 661 -491 70 -18
109 -21 262 -21 201 -1 285 14 433 76 224 93 449 314 552 543 74 162 106 390
81 566 -16 105 -642 2614 -674 2701 -148 392 -494 683 -895 753 -118 21 -3136
21 -3249 0z m3227 -438 c36 -10 103 -36 150 -59 68 -34 103 -60 176 -133 154
-152 124 -60 500 -1555 309 -1230 326 -1300 327 -1390 1 -183 -50 -310 -177
-435 -138 -136 -284 -197 -471 -197 -197 0 -365 83 -482 237 -25 33 -101 173
-169 310 -76 153 -143 277 -175 319 -70 91 -165 168 -274 221 -159 77 -143 76
-1045 73 l-795 -3 -70 -24 c-127 -42 -204 -89 -296 -181 l-85 -85 -153 -304
c-143 -282 -159 -309 -223 -376 -100 -106 -219 -166 -365 -184 -138 -17 -288
15 -413 89 -230 136 -339 349 -308 599 5 47 153 658 329 1356 366 1461 340
1378 488 1526 126 126 258 191 424 209 40 4 740 7 1557 6 1376 -2 1490 -3
1550 -19z"/>
<path d="M4482 4879 c-60 -11 -101 -37 -139 -87 -64 -84 -51 -205 30 -279 113
-104 271 -77 340 57 24 47 28 63 24 112 -3 33 -15 74 -28 98 -25 45 -100 100
-135 100 -12 0 -28 2 -36 4 -7 2 -33 0 -56 -5z"/>
<path d="M2426 4765 c-43 -15 -91 -57 -112 -97 -11 -20 -14 -72 -14 -212 l0
-184 -187 -4 c-204 -4 -222 -8 -274 -65 -39 -41 -49 -66 -49 -118 0 -61 31
-119 82 -152 41 -28 43 -28 235 -31 l193 -3 0 -185 c0 -166 2 -189 20 -224 66
-129 256 -127 319 2 19 40 21 61 21 226 l0 182 182 0 c165 0 186 2 226 21 109
53 136 196 54 282 -54 57 -71 61 -274 65 l-188 4 0 179 c0 128 -4 189 -14 212
-17 43 -76 93 -123 106 -47 13 -49 13 -97 -4z"/>
<path d="M3855 4287 c-219 -100 -154 -419 85 -419 124 0 213 91 214 217 0 76
-31 137 -92 179 -36 25 -54 31 -110 33 -41 2 -78 -2 -97 -10z"/>
<path d="M5015 4282 c-47 -23 -99 -75 -114 -115 -18 -46 -13 -133 8 -176 22
-43 80 -97 120 -112 38 -15 123 -13 162 4 46 19 83 56 109 107 18 35 21 56 18
110 -4 77 -32 128 -94 170 -50 33 -151 39 -209 12z"/>
<path d="M4443 3704 c-54 -20 -118 -90 -133 -145 -40 -147 94 -298 242 -275
165 27 244 226 139 355 -55 69 -161 97 -248 65z"/>
</g>
</svg>
